<mxfile host="app.diagrams.net" modified="2023-05-17T06:29:37.515Z" agent="Mozilla/5.0 (Windows NT 10.0; Win64; x64) AppleWebKit/537.36 (KHTML, like Gecko) Chrome/113.0.0.0 Safari/537.36 Edg/113.0.1774.42" etag="ARyoEtw_B6YLVJJYEd6l" version="21.3.2" type="device">
  <diagram name="Halaman-1" id="uPRTW_aBZFXEhmaX0lRj">
    <mxGraphModel dx="1155" dy="722" grid="1" gridSize="10" guides="1" tooltips="1" connect="1" arrows="1" fold="1" page="1" pageScale="1" pageWidth="827" pageHeight="1169" math="0" shadow="0">
      <root>
        <mxCell id="0" />
        <mxCell id="1" parent="0" />
        <mxCell id="xgymrbXtGUdQtmWBgpT9-1" value="Admin" style="shape=umlActor;verticalLabelPosition=bottom;verticalAlign=top;html=1;" vertex="1" parent="1">
          <mxGeometry x="130" y="310" width="30" height="60" as="geometry" />
        </mxCell>
        <mxCell id="xgymrbXtGUdQtmWBgpT9-4" value="" style="rounded=0;whiteSpace=wrap;html=1;" vertex="1" parent="1">
          <mxGeometry x="200" y="160" width="400" height="400" as="geometry" />
        </mxCell>
        <mxCell id="xgymrbXtGUdQtmWBgpT9-5" value="Login" style="ellipse;whiteSpace=wrap;html=1;" vertex="1" parent="1">
          <mxGeometry x="340" y="230" width="120" height="50" as="geometry" />
        </mxCell>
        <mxCell id="xgymrbXtGUdQtmWBgpT9-6" value="Kuis" style="ellipse;whiteSpace=wrap;html=1;" vertex="1" parent="1">
          <mxGeometry x="335" y="370" width="120" height="50" as="geometry" />
        </mxCell>
        <mxCell id="xgymrbXtGUdQtmWBgpT9-7" value="History Kuis" style="ellipse;whiteSpace=wrap;html=1;" vertex="1" parent="1">
          <mxGeometry x="335" y="450" width="120" height="50" as="geometry" />
        </mxCell>
        <mxCell id="xgymrbXtGUdQtmWBgpT9-8" value="Kuis" style="ellipse;whiteSpace=wrap;html=1;" vertex="1" parent="1">
          <mxGeometry x="335" y="300" width="120" height="50" as="geometry" />
        </mxCell>
        <mxCell id="xgymrbXtGUdQtmWBgpT9-9" value="&lt;i&gt;User&lt;/i&gt;" style="shape=umlActor;verticalLabelPosition=bottom;verticalAlign=top;html=1;" vertex="1" parent="1">
          <mxGeometry x="640" y="310" width="30" height="60" as="geometry" />
        </mxCell>
        <mxCell id="xgymrbXtGUdQtmWBgpT9-13" value="Sistem&amp;nbsp;" style="text;html=1;strokeColor=none;fillColor=none;align=center;verticalAlign=middle;whiteSpace=wrap;rounded=0;" vertex="1" parent="1">
          <mxGeometry x="210" y="170" width="60" height="30" as="geometry" />
        </mxCell>
      </root>
    </mxGraphModel>
  </diagram>
</mxfile>
